
<svg width="148px" height="33px" viewBox="0 0 148 33" version="1.1" xmlns="http://www.w3.org/2000/svg" xmlns:xlink="http://www.w3.org/1999/xlink">
    <g id="Mobile-UI" stroke="none" stroke-width="1" fill="none" fill-rule="evenodd">
        <g id="Mobile-Landing-Page" transform="translate(-108.000000, -25.000000)" fill="#FFFFFF">
            <g id="Group-3" transform="translate(107.000000, 22.000000)">
                <g id="Group-2" transform="translate(0.000000, 21.000000)">
                    <g id="Group" transform="translate(99.000000, 0.000000)">
                        <path d="M23.2671549,5.20021333 C23.1505068,5.20021333 23.0528048,5.31114667 23.0528048,5.44469333 L23.0528048,10.5557333 C23.0528048,10.6888533 23.1505068,10.7997867 23.2671549,10.7997867 L29,10.7997867 L29,12 L23.2671549,12 C22.5654089,12 22,11.3557333 22,10.5557333 L22,5.44469333 C22,4.64469333 22.5654089,4 23.2671549,4 L29,4 L29,5.20021333 L23.2671549,5.20021333 Z" id="Path"></path>
                        <path d="M36.7364929,10.8002133 C36.8524042,10.8002133 36.9501115,10.68928 36.9501115,10.5557333 L36.9501115,5.44426667 C36.9501115,5.31072 36.8524042,5.20021333 36.7364929,5.20021333 L32.2638786,5.20021333 C32.1472243,5.20021333 32.0498885,5.31072 32.0498885,5.44426667 L32.0498885,10.5553067 C32.0498885,10.6888533 32.1472243,10.7997867 32.2638786,10.7997867 L36.7364929,10.7997867 L36.7364929,10.8002133 Z M36.7364929,4 C37.4364186,4 38,4.64426667 38,5.44426667 L38,10.5553067 C38,11.3557333 37.4360471,12 36.7364929,12 L32.2638786,12 C31.5635814,12 31,11.3557333 31,10.5553067 L31,5.44426667 C31,4.64426667 31.5639529,4 32.2638786,4 L36.7364929,4 Z" id="Shape" fill-rule="nonzero"></path>
                        <polygon id="Path" points="40 4 47 4 47 5.42208 41.3994799 10.8002133 47 10.8002133 47 12 40 12 40 10.5774933 45.6001486 5.20021333 40 5.20021333"></polygon>
                        <polygon id="Path" points="17 10.5 14.6666667 13 10 13 14.6666667 8"></polygon>
                        <polygon id="Path" points="12 6.02698814 10.1615409 4.05366518 12 2.08065332 10 0.107641454 8 2.08065332 6.10904007 0 4 2.08065332 10 8"></polygon>
                        <polygon id="Path" points="2 5 8 11.0000622 4 15 0 15 4 11.0000622 0 7.00012444"></polygon>
                    </g>
                    <text id="Brought-to-you-by:" font-family="Rajdhani-Medium, Rajdhani" font-size="12" font-weight="400">
                        <tspan x="0.452" y="11">Brought to you by:</tspan>
                    </text>
                </g>
                <text id="NEO3-Preview-Explore" font-family="Rajdhani-Bold, Rajdhani" font-size="16" font-weight="bold">
                    <tspan x="0.436" y="15">NEO3 Preview Explorer</tspan>
                </text>
            </g>
        </g>
    </g>
</svg>