
<svg width="63px" height="20px" viewBox="0 0 63 20" version="1.1" xmlns="http://www.w3.org/2000/svg" xmlns:xlink="http://www.w3.org/1999/xlink">
    <g id="Desktop-UI" stroke="none" stroke-width="1" fill="none" fill-rule="evenodd">
        <g id="Landing-Page-V2" transform="translate(-318.000000, -54.000000)" fill="#FFFFFF">
            <g id="Group" transform="translate(318.000000, 54.000000)">
                <path d="M31.6291992,6.50026667 C31.4792231,6.50026667 31.3536061,6.63893333 31.3536061,6.80586667 L31.3536061,13.1946667 C31.3536061,13.3610667 31.4792231,13.4997333 31.6291992,13.4997333 L39,13.4997333 L39,15 L31.6291992,15 C30.7269543,15 30,14.1946667 30,13.1946667 L30,6.80586667 C30,5.80586667 30.7269543,5 31.6291992,5 L39,5 L39,6.50026667 L31.6291992,6.50026667 Z" id="Path"></path>
                <path d="M49.3754909,13.5002667 C49.5245197,13.5002667 49.6501433,13.3616 49.6501433,13.1946667 L49.6501433,6.80533333 C49.6501433,6.6384 49.5245197,6.50026667 49.3754909,6.50026667 L43.6249867,6.50026667 C43.4750027,6.50026667 43.3498567,6.6384 43.3498567,6.80533333 L43.3498567,13.1941333 C43.3498567,13.3610667 43.4750027,13.4997333 43.6249867,13.4997333 L49.3754909,13.4997333 L49.3754909,13.5002667 Z M49.3754909,5 C50.2753954,5 51,5.80533333 51,6.80533333 L51,13.1941333 C51,14.1946667 50.2749177,15 49.3754909,15 L43.6249867,15 C42.7246046,15 42,14.1946667 42,13.1941333 L42,6.80533333 C42,5.80533333 42.7250823,5 43.6249867,5 L49.3754909,5 Z" id="Shape" fill-rule="nonzero"></path>
                <polygon id="Path" points="54 5 63 5 63 6.7776 55.7993313 13.5002667 63 13.5002667 63 15 54 15 54 13.2218667 61.2001911 6.50026667 54 6.50026667"></polygon>
                <polygon id="Path" points="23 14 20 17 14 17 20 11"></polygon>
                <polygon id="Path" points="16 8.28710869 13.7019261 5.57378962 16 2.86089831 13.5 0.148007 11 2.86089831 8.63630009 0 6 2.86089831 13.5 11"></polygon>
                <polygon id="Path" points="2.5 6 10 14.4000871 5 20 0 20 5 14.4000871 0 8.80017422"></polygon>
            </g>
        </g>
    </g>
</svg>