
<svg width="32px" height="32px" viewBox="0 0 32 32" version="1.1" xmlns="http://www.w3.org/2000/svg" xmlns:xlink="http://www.w3.org/1999/xlink">
    <g id="Desktop-UI" stroke="none" stroke-width="1" fill="none" fill-rule="evenodd">
        <g id="Landing-Page-V2" transform="translate(-1228.000000, -1829.000000)" fill="#F9FAFA">
            <path d="M1248.155,1839.656 L1246.649,1839.657 C1245.468,1839.657 1245.239,1840.218 1245.239,1841.041 L1245.239,1842.857 L1248.056,1842.857 L1247.689,1845.702 L1245.239,1845.702 L1245.239,1853 L1242.302,1853 L1242.302,1845.702 L1239.846,1845.702 L1239.846,1842.857 L1242.302,1842.857 L1242.302,1840.76 C1242.302,1838.325 1243.789,1837 1245.96,1837 C1247,1837 1247.894,1837.077 1248.155,1837.112 L1248.155,1839.656 Z M1244,1829 C1235.164,1829 1228,1836.163 1228,1845 C1228,1853.836 1235.164,1861 1244,1861 C1252.837,1861 1260,1853.836 1260,1845 C1260,1836.163 1252.837,1829 1244,1829 L1244,1829 Z" id="Fill-183"></path>
        </g>
    </g>
</svg>