
<svg width="18px" height="18px" viewBox="0 0 18 18" version="1.1" xmlns="http://www.w3.org/2000/svg" xmlns:xlink="http://www.w3.org/1999/xlink">
    <g id="Desktop-UI" stroke="none" stroke-width="1" fill="none" fill-rule="evenodd">
        <g id="Landing-Page---Lightbox-Modal" transform="translate(-1082.000000, -210.000000)" fill="#00E599" fill-rule="nonzero">
            <g id="Group-7" transform="translate(330.000000, 200.000000)">
                <g id="noun_Close_2797280" transform="translate(752.000000, 10.000000)">
                    <path d="M12.7700113,11.6696731 L10.1003382,9 L12.7700113,6.33032694 C13.0766629,6.02367531 13.0766629,5.53664036 12.7700113,5.22998873 C12.4633596,4.92333709 11.9763247,4.92333709 11.6696731,5.22998873 L9,7.89966178 L6.33032694,5.22998873 C6.02367531,4.92333709 5.53664036,4.92333709 5.22998873,5.22998873 C4.92333709,5.53664036 4.92333709,6.02367531 5.22998873,6.33032694 L7.89966178,9 L5.22998873,11.6696731 C4.92333709,11.9763247 4.92333709,12.4633596 5.22998873,12.7700113 C5.53664036,13.0766629 6.02367531,13.0766629 6.33032694,12.7700113 L9,10.1003382 L11.6696731,12.7700113 C11.9763247,13.0766629 12.4633596,13.0766629 12.7700113,12.7700113 C13.0766629,12.4633596 13.0766629,11.9763247 12.7700113,11.6696731 Z" id="Path"></path>
                    <path d="M15.3641882,2.63581184 C11.8497724,-0.878603945 6.15022762,-0.878603945 2.63581184,2.63581184 C-0.878603945,6.15022762 -0.878603945,11.8497724 2.63581184,15.3641882 C6.15022762,18.8786039 11.8497724,18.8786039 15.3641882,15.3641882 C18.8786039,11.831563 18.8786039,6.15022762 15.3641882,2.63581184 Z M3.76479514,14.2352049 C0.869499241,11.339909 0.869499241,6.64188164 3.76479514,3.74658574 C6.66009105,0.851289833 11.3581184,0.851289833 14.2534143,3.74658574 C17.1487102,6.64188164 17.1487102,11.339909 14.2534143,14.2352049 C11.3581184,17.1305008 6.66009105,17.1305008 3.76479514,14.2352049 Z" id="Shape"></path>
                </g>
            </g>
        </g>
    </g>
</svg>