<?xml version="1.0" encoding="UTF-8"?>
<svg width="108px" height="42px" viewBox="0 0 108 42" version="1.1" xmlns="http://www.w3.org/2000/svg" xmlns:xlink="http://www.w3.org/1999/xlink">
    <!-- Generator: Sketch 63.1 (92452) - https://sketch.com -->
    <title>Group 4</title>
    <desc>Created with Sketch.</desc>
    <g id="Desktop-UI" stroke="none" stroke-width="1" fill="none" fill-rule="evenodd">
        <g id="Landing-Page" transform="translate(-40.000000, -29.000000)" fill-rule="nonzero">
            <g id="Group-4" transform="translate(40.000000, 29.000000)">
                <path d="M60.7588933,12.0346811 C62.2529644,13.3536977 63,15.3143979 63,17.8454837 L63,31 L59.7272727,31 L59.7272727,18.9862548 C59.7272727,16.847309 59.2648221,15.2787488 58.3399209,14.3162232 C57.4150198,13.3536977 56.2055336,12.8902594 54.6758893,12.8902594 C53.6086957,12.8902594 52.541502,13.1398031 51.5810277,13.6032413 C50.5849802,14.1379778 49.7667984,14.957907 49.2332016,15.9560816 C48.5928854,17.0255545 48.3083004,18.4158692 48.3083004,20.0557276 L48.3083004,31 L45,31 L45,11.0365064 L48.0237154,12.2842248 L48.0948617,13.6388904 C48.7351779,12.4268212 49.7312253,11.4642956 50.9407115,10.8939101 C52.1857708,10.2878754 53.6086957,9.96703357 54.9960474,10.0026827 C57.3083004,10.0026827 59.229249,10.6800155 60.7588933,12.0346811 Z" id="Path" fill="#000033"></path>
                <path d="M83.8188695,21.706383 L68.255736,21.706383 C68.4346226,23.7677492 69.1501689,25.3399776 70.3308204,26.4580067 C71.511472,27.5760358 73.085674,28.1699888 74.9818718,28.1699888 C76.3056326,28.2049272 77.5936161,27.9254199 78.7742676,27.4013438 C79.7402552,26.9471445 80.4558016,26.143561 80.8135748,25.1652856 L83.5684283,26.5977604 C82.8171046,27.9603583 81.6722304,29.1133259 80.276915,29.8470325 C78.9173769,30.6156775 77.128511,31 74.9818718,31 C71.8692451,31 69.4363875,30.0566629 67.6475216,28.2049272 C65.8586556,26.3531915 65,23.7677492 65,20.4835386 C65,17.1993281 65.8228783,14.6488242 67.5401896,12.7970885 C69.2575009,10.9453527 71.6188039,10.0020157 74.7314306,10.0020157 C76.4845192,9.96707727 78.2376078,10.3863382 79.7402552,11.2597984 C81.0997933,12.0633819 82.2088902,13.2512878 82.9244365,14.6488242 C83.6399829,16.1511758 84.0335334,17.7932811 83.9977561,19.4353863 C83.9977561,20.2040314 83.9262015,20.937738 83.8188695,21.706383 Z M70.3308204,14.4042553 C69.2217236,15.4524076 68.5419545,16.9198208 68.2915133,18.8414334 L80.8135748,18.8414334 C80.5989108,16.9547592 79.9549191,15.487346 78.9173769,14.4391937 C77.8798346,13.3910414 76.4845192,12.8320269 74.7314306,12.8320269 C72.978342,12.8320269 71.4399173,13.356103 70.3308204,14.4042553 L70.3308204,14.4042553 Z" id="Shape" fill="#000033"></path>
                <path d="M105.316637,12.7953411 C107.105546,14.6472546 108,17.1980033 108,20.4825291 C108,23.7670549 107.105546,26.3527454 105.316637,28.2046589 C103.527728,30.0565724 101.094812,31 97.9821109,31 C94.8694097,31 92.4364937,30.0565724 90.647585,28.2046589 C88.8586762,26.3527454 88,23.7670549 88,20.4825291 C88,17.1980033 88.8944544,14.6472546 90.647585,12.7953411 C92.4007156,10.9434276 94.8694097,10 97.9821109,10 C101.094812,10 103.563506,10.9434276 105.316637,12.7953411 Z M93.0805009,14.8569052 C91.8998211,16.2196339 91.2915921,18.1064892 91.2915921,20.4825291 C91.2915921,22.8585691 91.8998211,24.7803661 93.0805009,26.1430948 C94.2611807,27.5058236 95.9069767,28.2046589 97.9821109,28.2046589 C100.057245,28.2046589 101.738819,27.5058236 102.919499,26.1430948 C104.100179,24.7803661 104.67263,22.8935108 104.67263,20.4825291 C104.67263,18.0715474 104.100179,16.2196339 102.919499,14.8569052 C101.738819,13.4941764 100.093023,12.7953411 97.9821109,12.7953411 C95.8711986,12.7953411 94.2611807,13.4592346 93.0805009,14.8569052 L93.0805009,14.8569052 Z" id="Shape" fill="#000033"></path>
                <polygon id="Path" fill="#00E599" points="0 7.35 0 35.455 17.8009217 42 17.8009217 13.65 37 6.405 19.5741935 0"></polygon>
                <polygon id="Path" fill="#00AF92" points="20 13.8928571 20 29.3571429 38 36 38 7"></polygon>
            </g>
        </g>
    </g>
</svg>