
<svg width="17px" height="17px" viewBox="0 0 17 17" version="1.1" xmlns="http://www.w3.org/2000/svg" xmlns:xlink="http://www.w3.org/1999/xlink">
    <g id="Desktop-UI" stroke="none" stroke-width="1" fill="none" fill-rule="evenodd">
        <g id="Landing-Page" transform="translate(-143.000000, -634.000000)" fill="#FFFFFF" fill-rule="nonzero">
            <g id="Group-3-Copy" transform="translate(143.000000, 634.000000)">
                <path d="M4.69810012,17 L0.322418636,17 C0.138179415,17 0,16.8623853 0,16.6788991 L0,12.3211009 C0,12.1376147 0.138179415,12 0.322418636,12 L4.67507022,12 C4.85930944,12 4.99748885,12.1376147 4.99748885,12.3211009 L4.99748885,16.6559633 C5.02051876,16.8394495 4.88233934,17 4.69810012,17 Z" id="Path"></path>
                <path d="M10.6983866,17 L6.3224383,17 C6.13818784,17 6,16.8623853 6,16.6788991 L6,12.3211009 C6,12.1376147 6.13818784,12 6.3224383,12 L10.6753553,12 C10.8596057,12 10.9977936,12.1376147 10.9977936,12.3211009 L10.9977936,16.6559633 C11.0208249,16.8394495 10.8596057,17 10.6983866,17 Z" id="Path"></path>
                <path d="M16.6983866,17 L12.3224383,17 C12.1381878,17 12,16.8623853 12,16.6788991 L12,12.3211009 C12,12.1376147 12.1381878,12 12.3224383,12 L16.6753553,12 C16.8596057,12 16.9977936,12.1376147 16.9977936,12.3211009 L16.9977936,16.6559633 C17.0208249,16.8394495 16.8596057,17 16.6983866,17 Z" id="Path"></path>
                <path d="M10.6983866,11 L6.3224383,11 C6.13818784,11 6,10.8623853 6,10.6788991 L6,6.32110092 C6,6.13761468 6.13818784,6 6.3224383,6 L10.6753553,6 C10.8596057,6 10.9977936,6.13761468 10.9977936,6.32110092 L10.9977936,10.6559633 C11.0208249,10.8394495 10.8596057,11 10.6983866,11 Z" id="Path"></path>
                <path d="M16.6983866,11 L12.3224383,11 C12.1381878,11 12,10.8623853 12,10.6788991 L12,6.32110092 C12,6.13761468 12.1381878,6 12.3224383,6 L16.6753553,6 C16.8596057,6 16.9977936,6.13761468 16.9977936,6.32110092 L16.9977936,10.6559633 C17.0208249,10.8623853 16.8596057,11 16.6983866,11 Z" id="Path"></path>
                <path d="M16.6983866,5 L12.3224383,5 C12.1381878,5 12,4.86175115 12,4.67741935 L12,0.322580645 C12,0.138248848 12.1381878,0 12.3224383,0 L16.6753553,0 C16.8596057,0 16.9977936,0.138248848 16.9977936,0.322580645 L16.9977936,4.67741935 C17.0208249,4.86175115 16.8596057,5 16.6983866,5 Z" id="Path"></path>
            </g>
        </g>
    </g>
</svg>