
<svg width="32px" height="32px" viewBox="0 0 32 32" version="1.1" xmlns="http://www.w3.org/2000/svg" xmlns:xlink="http://www.w3.org/1999/xlink">
    <g id="Desktop-UI" stroke="none" stroke-width="1" fill="none" fill-rule="evenodd">
        <g id="Addresses" transform="translate(-1275.000000, -1492.000000)">
            <g id="Group-7" transform="translate(39.000000, 1455.000000)">
                <g id="Group-11" transform="translate(1235.797583, 36.792543)">
                    <g id="Group-10" transform="translate(0.202417, 0.207457)" fill="#F9FAFA">
                        <g id="Group-8">
                            <g id="Group-9">
                                <path d="M16,0 C7.163,0 0,7.163 0,16 C0,24.836 7.163,32 16,32 C24.837,32 32,24.836 32,16 C32,7.163 24.837,0 16,0" id="Fill-184"></path>
                            </g>
                        </g>
                    </g>
                    <path d="M16.2184169,7.00745678 C11.1730827,7.2549711 7.16306219,11.3346101 7.00241689,16.3834568 C6.90176657,20.8932189 9.95449554,24.8647627 14.3384169,25.9274568 L14.3384169,24.0074568 L13.3224169,24.0074568 L11.5144169,22.6314568 C11.2028089,22.3642138 11.1440468,21.9044864 11.3784169,21.5674568 C11.4968022,21.403143 11.6764578,21.2935244 11.8767255,21.263409 C12.0769932,21.2332935 12.2809424,21.2852272 12.4424169,21.4074568 L13.8184169,22.4794568 L14.3384169,22.4794568 L14.3384169,21.6794568 L15.0024169,20.0554568 C12.0104169,19.5754568 9.80241689,17.7754568 9.80241689,15.6314568 C9.84790535,14.4933083 10.4068827,13.4371354 11.3224169,12.7594568 L11.3224169,10.2954568 L13.5144169,11.5754568 C15.5429,10.9036049 17.7339338,10.9036049 19.7624169,11.5754568 L21.9624169,10.2954568 L21.9624169,12.7754568 C22.8751897,13.4474022 23.4318262,14.4988267 23.4744169,15.6314568 C23.4744169,17.7754568 21.2584169,19.5754568 18.2664169,20.0554568 L18.9304169,21.7354568 L18.9304169,25.9114568 C23.7010042,24.7144248 26.795191,20.1054594 26.0967293,15.2368313 C25.3982677,10.3682032 21.1331251,6.8150198 16.2184169,7.00745678 Z" id="Path" fill="#000033" fill-rule="nonzero"></path>
                </g>
            </g>
        </g>
    </g>
</svg>