
<svg width="32px" height="32px" viewBox="0 0 32 32" version="1.1" xmlns="http://www.w3.org/2000/svg" xmlns:xlink="http://www.w3.org/1999/xlink">
    <g id="Desktop-UI" stroke="none" stroke-width="1" fill="none" fill-rule="evenodd">
        <g id="Landing-Page-V2" transform="translate(-1322.000000, -1829.000000)" fill="#F9FAFA">
            <path d="M1346,1852.985 L1342.685,1852.985 L1342.685,1847.797 C1342.685,1846.56 1342.663,1844.969 1340.962,1844.969 C1339.237,1844.969 1338.974,1846.317 1338.974,1847.709 L1338.974,1852.985 L1335.662,1852.985 L1335.662,1842.317 L1338.84,1842.317 L1338.84,1843.776 L1338.886,1843.776 C1339.328,1842.937 1340.41,1842.052 1342.023,1842.052 C1345.38,1842.052 1346,1844.261 1346,1847.134 L1346,1852.985 Z M1331.924,1840.86 C1330.859,1840.86 1330,1839.998 1330,1838.937 C1330,1837.876 1330.859,1837.014 1331.924,1837.014 C1332.984,1837.014 1333.845,1837.876 1333.845,1838.937 C1333.845,1839.998 1332.984,1840.86 1331.924,1840.86 L1331.924,1840.86 Z M1333.582,1852.985 L1330.263,1852.985 L1330.263,1842.317 L1333.582,1842.317 L1333.582,1852.985 Z M1338,1829 C1329.163,1829 1322,1836.163 1322,1845 C1322,1853.836 1329.163,1861 1338,1861 C1346.837,1861 1354,1853.836 1354,1845 C1354,1836.163 1346.837,1829 1338,1829 L1338,1829 Z" id="Fill-209"></path>
        </g>
    </g>
</svg>