
<svg width="32px" height="32px" viewBox="0 0 32 32" version="1.1" xmlns="http://www.w3.org/2000/svg" xmlns:xlink="http://www.w3.org/1999/xlink">
    <g id="Desktop-UI" stroke="none" stroke-width="1" fill="none" fill-rule="evenodd">
        <g id="Addresses" transform="translate(-1275.000000, -1492.000000)">
            <g id="Group-7" transform="translate(39.000000, 1455.000000)">
                <g id="Group-10" transform="translate(1236.000000, 37.000000)">
                    <g id="Group-8" fill="#F9FAFA">
                        <g id="Group-9">
                            <path d="M16,0 C7.163,0 0,7.163 0,16 C0,24.836 7.163,32 16,32 C24.837,32 32,24.836 32,16 C32,7.163 24.837,0 16,0" id="Fill-184"></path>
                        </g>
                    </g>
                    <g id="iconfinder_slack_4691346" transform="translate(7.000000, 7.000000)" fill="#000033" fill-rule="nonzero">
                        <path d="M3.7815,11.37375 C3.77944167,12.4170794 2.93482621,13.2627003 1.8915,13.266 C0.847587905,13.2635244 0.00206176994,12.417663 2.22044605e-16,11.37375 C0.00288774131,10.330545 0.848293084,9.48581013 1.8915,9.48375 L3.7815,9.48375 L3.7815,11.37375 L3.7815,11.37375 Z M4.73475,11.37375 C4.73763604,10.330837 5.58258594,9.48622226 6.6255,9.48375 C7.66841406,9.48622226 8.51336396,10.330837 8.51625,11.37375 L8.51625,16.1085 C8.51377773,17.1518283 7.66882721,17.997114 6.6255,18 C5.58217279,17.997114 4.73722227,17.1518283 4.73475,16.1085 L4.73475,11.37375 L4.73475,11.37375 Z M6.6255,3.7815 C5.58275629,3.77861785 4.73804585,2.93424249 4.73475,1.8915 C4.73722227,0.848171729 5.58217279,0.00288604175 6.6255,0 C7.66882721,0.00288604175 8.51377773,0.848171729 8.51625,1.8915 L8.51625,3.7815 L6.6255,3.7815 Z M6.6255,4.73475 C7.66853539,4.73763418 8.51336582,5.58246461 8.51625,6.6255 C8.51336582,7.66853539 7.66853539,8.51336582 6.6255,8.51625 L1.8915,8.51625 C0.848171729,8.51377773 0.00288604175,7.66882721 0,6.6255 C0.00288604175,5.58217279 0.848171729,4.73722227 1.8915,4.73475 L6.6255,4.73475 Z M14.217,6.6255 C14.219886,5.58217279 15.0651717,4.73722227 16.1085,4.73475 C17.1518283,4.73722227 17.997114,5.58217279 18,6.6255 C17.997114,7.66882721 17.1518283,8.51377773 16.1085,8.51625 L14.217,8.51625 L14.217,6.6255 L14.217,6.6255 Z M13.266,6.6255 C13.2631123,7.66911917 12.4173711,8.51418987 11.37375,8.51625 C10.330837,8.51336396 9.48622226,7.66841406 9.48375,6.6255 L9.48375,1.8915 C9.48581013,0.848293084 10.330545,0.00288774131 11.37375,0 C12.417663,0.00206176994 13.2635244,0.847587905 13.266,1.8915 L13.266,6.6255 L13.266,6.6255 Z M11.37375,14.217 C12.417663,14.2190618 13.2635244,15.0645879 13.266,16.1085 C13.2635244,17.1524121 12.417663,17.9979382 11.37375,18 C10.330545,17.9971123 9.48581013,17.1517069 9.48375,16.1085 L9.48375,14.217 L11.37375,14.217 L11.37375,14.217 Z M11.37375,13.266 C10.3302529,13.2631107 9.48539776,12.4172497 9.48375,11.37375 C9.48622401,10.3309583 10.3309583,9.48622401 11.37375,9.48375 L16.1085,9.48375 C17.1517069,9.48581013 17.9971123,10.330545 18,11.37375 C17.9979382,12.417663 17.1524121,13.2635244 16.1085,13.266 L11.37375,13.266 L11.37375,13.266 Z" id="Shape"></path>
                    </g>
                </g>
            </g>
        </g>
    </g>
</svg>