
<svg width="32px" height="32px" viewBox="0 0 32 32" version="1.1" xmlns="http://www.w3.org/2000/svg" xmlns:xlink="http://www.w3.org/1999/xlink">
    <g id="Desktop-UI" stroke="none" stroke-width="1" fill="none" fill-rule="evenodd">
        <g id="Landing-Page-V2" transform="translate(-1275.000000, -1829.000000)" fill="#F9FAFA">
            <path d="M1297.362,1841.737 C1297.368,1841.878 1297.372,1842.019 1297.372,1842.162 C1297.372,1846.499 1294.07,1851.501 1288.032,1851.501 C1286.178,1851.501 1284.453,1850.958 1283,1850.027 C1283.257,1850.057 1283.518,1850.072 1283.783,1850.072 C1285.321,1850.072 1286.736,1849.548 1287.86,1848.667 C1286.423,1848.641 1285.211,1847.692 1284.793,1846.388 C1284.994,1846.426 1285.199,1846.446 1285.411,1846.446 C1285.71,1846.446 1286,1846.406 1286.276,1846.331 C1284.774,1846.03 1283.643,1844.703 1283.643,1843.113 L1283.643,1843.071 C1284.085,1843.317 1284.592,1843.465 1285.13,1843.482 C1284.249,1842.893 1283.669,1841.888 1283.669,1840.75 C1283.669,1840.148 1283.831,1839.584 1284.114,1839.099 C1285.733,1841.085 1288.152,1842.392 1290.88,1842.529 C1290.824,1842.289 1290.795,1842.038 1290.795,1841.781 C1290.795,1839.968 1292.265,1838.498 1294.077,1838.498 C1295.022,1838.498 1295.875,1838.897 1296.473,1839.535 C1297.221,1839.388 1297.924,1839.115 1298.558,1838.739 C1298.313,1839.505 1297.792,1840.148 1297.115,1840.555 C1297.779,1840.475 1298.411,1840.299 1299,1840.038 C1298.56,1840.696 1298.003,1841.274 1297.362,1841.737 M1291,1829 C1282.163,1829 1275,1836.163 1275,1845 C1275,1853.836 1282.163,1861 1291,1861 C1299.837,1861 1307,1853.836 1307,1845 C1307,1836.163 1299.837,1829 1291,1829" id="Fill-184"></path>
        </g>
    </g>
</svg>