
<svg width="14px" height="26px" viewBox="0 0 14 26" version="1.1" xmlns="http://www.w3.org/2000/svg" xmlns:xlink="http://www.w3.org/1999/xlink">
    <g id="Desktop-UI" stroke="none" stroke-width="1" fill="none" fill-rule="evenodd">
        <g id="Landing-Page---Active-Search" transform="translate(-1264.000000, -1372.000000)" fill="#FFFFFF" fill-rule="nonzero">
            <g id="noun_Arrow_2094744-Copy-3" transform="translate(1271.000000, 1385.000000) rotate(-180.000000) translate(-1271.000000, -1385.000000) translate(1264.000000, 1372.000000)">
                <path d="M0.237365803,25.7817148 C0.377452792,25.9203594 0.567812208,25.9988425 0.766737123,26 C0.966266723,26.0018024 1.15775118,25.9228555 1.29610844,25.7817148 L13.7786842,13.5283128 C13.9202895,13.3911245 14,13.2039632 14,13.0086605 C14,12.8133577 13.9202895,12.6261964 13.7786842,12.4890081 L1.29610844,0.233007887 C1.10922067,0.0368909251 0.82828224,-0.043614839 0.563262432,0.0230034128 C0.298242624,0.0896216645 0.0912978466,0.292767041 0.0234336426,0.55292122 C-0.0444305615,0.8130754 0.0375808911,1.08885595 0.237365803,1.27231255 L12.1905702,13.0086605 L0.237365803,24.7424101 C0.096418717,24.8799438 0.0171643752,25.0669757 0.0171643752,25.2620624 C0.0171643752,25.4571492 0.096418717,25.6441811 0.237365803,25.7817148 L0.237365803,25.7817148 Z" id="Path"></path>
            </g>
        </g>
    </g>
</svg>