
<svg width="70px" height="71px" viewBox="0 0 70 71" version="1.1" xmlns="http://www.w3.org/2000/svg" xmlns:xlink="http://www.w3.org/1999/xlink">
    <g id="Desktop-UI" stroke="none" stroke-width="1" fill="none" fill-rule="evenodd">
        <g id="Landing-Page---Active-Search" transform="translate(-1139.000000, -991.000000)" fill-rule="nonzero">
            <g id="NeoID" transform="translate(1139.000000, 991.000000)">
                <path d="M58.4,70 L15.2,45.2 C14.1,44.6 13.5,43.5 13.5,42.3 L13.5,1.9 C13.5,1 14.2,0.2 15.2,0.2 C15.5,0.2 15.9,0.3 16.1,0.5 L59.2,25.3 C60.3,25.9 60.9,27 60.9,28.2 L60.9,68.6 C60.9,69.5 60.2,70.3 59.2,70.3 C58.9,70.2 58.6,70.2 58.4,70 Z" id="Path" fill="#FFFFFF"></path>
                <path d="M17.4,32.4 L1.3,23.2 C0.5,22.7 0,21.9 0,21 L0,2.2 C0,1.5 0.6,0.9 1.3,0.9 C1.5,0.9 1.7,1 1.9,1.1 L18.1,10.3 C18.9,10.8 19.4,11.6 19.4,12.5 L19.4,31.3 C19.4,32 18.9,32.6 18.1,32.6 C17.9,32.6 17.6,32.5 17.4,32.4 Z" id="Path" fill="#969696"></path>
                <path d="M14.2,27.6 L4.3,21.9 C4.1,21.8 4,21.6 4,21.4 L4,21.1 C4,19 5.8,17.2 7.9,17.3 C8.5,17.3 9.2,17.5 9.7,17.8 L9.7,17.8 C13.1,19.7 15,23.2 15,27.1 L15,27.1 C15,27.4 14.7,27.7 14.4,27.7 C14.4,27.6 14.3,27.6 14.2,27.6 Z" id="Path" fill="#2B393F"></path>
                <path d="M68.6,47.2 L41.9,31.9 C41.6,31.7 41.5,31.5 41.5,31.1 L41.5,27.8 C41.5,27.6 41.7,27.4 41.9,27.4 C42,27.4 42,27.4 42.1,27.5 L68.8,42.8 C69.1,43 69.2,43.2 69.2,43.6 L69.2,46.8 C69.2,47 69,47.2 68.8,47.3 C68.7,47.3 68.7,47.2 68.6,47.2 Z" id="Path" fill="#02E49B"></path>
                <path d="M31.1,46.2 L25.2,42.7 C24.9,42.5 24.8,42.2 24.8,41.9 L24.8,38.7 C24.8,38.5 25,38.3 25.2,38.3 C25.3,38.3 25.3,38.3 25.4,38.4 L31.3,41.9 C31.6,42.1 31.7,42.3 31.7,42.7 L31.7,46 C31.7,46.2 31.5,46.4 31.3,46.4 C31.2,46.2 31.2,46.2 31.1,46.2 Z" id="Path" fill="#02E49B"></path>
                <path d="M34.7,28.1 L25.2,22.4 C24.9,22.2 24.8,21.9 24.8,21.6 L24.8,18.4 C24.8,18.2 25,18 25.2,18 C25.3,18 25.3,18 25.4,18.1 L34.9,23.8 C35.2,24 35.3,24.3 35.3,24.6 L35.3,27.8 C35.3,28 35.2,28.3 34.9,28.3 C34.9,28.1 34.8,28.1 34.7,28.1 Z" id="Path" fill="#02E49B"></path>
                <path d="M39.2,40.5 L25.2,32.5 C24.9,32.3 24.8,32.1 24.8,31.7 L24.8,28.5 C24.8,28.3 25,28.1 25.2,28.1 C25.3,28.1 25.4,28.1 25.4,28.2 L39.4,36.2 C39.7,36.4 39.8,36.6 39.8,37 L39.8,40.3 C39.8,40.5 39.6,40.7 39.4,40.7 C39.3,40.5 39.2,40.5 39.2,40.5 Z" id="Path" fill="#02E49B"></path>
                <ellipse id="Oval" fill="#2B393F" transform="translate(9.298470, 12.610090) rotate(-25.219725) translate(-9.298470, -12.610090) " cx="9.29847" cy="12.61009" rx="3.30007144" ry="3.80008227"></ellipse>
            </g>
        </g>
    </g>
</svg>