
<svg width="18px" height="15px" viewBox="0 0 18 15" version="1.1" xmlns="http://www.w3.org/2000/svg" xmlns:xlink="http://www.w3.org/1999/xlink">
    <g id="Desktop-UI" stroke="none" stroke-width="1" fill="none" fill-rule="evenodd">
        <g id="Landing-Page-V2" transform="translate(-143.000000, -636.000000)" fill="#00E599">
            <g id="noun_signal_2737081" transform="translate(143.000000, 636.000000)">
                <path d="M3,10.7689735 L3,14.2307225 C3,14.692289 2.6875,15 2.375,15 L0.625,15 C0.25,15 0,14.692289 0,14.2307225 L0,11.845962 C0,11.538251 0.125,11.3074678 0.3125,11.1536123 L2.125,10.0766237 C2.5,9.84584042 3,10.1535514 3,10.7689735 Z" id="Path"></path>
                <path d="M8,7.74047505 L8,14.2592321 C8,14.7036929 7.74468085,15 7.42553191,15 L5.57446809,15 C5.25531915,15 5,14.7036929 5,14.2592321 L5,8.77755004 C5,8.4812429 5.12765957,8.25901254 5.31914894,8.11085897 L7.17021277,7.07378398 C7.55319149,6.85155363 8,7.14786077 8,7.74047505 Z" id="Path"></path>
                <path d="M13,4.72820794 L13,14.2715041 C13,14.7086016 12.75,15 12.375,15 L10.625,15 C10.3125,15 10,14.7086016 10,14.2715041 L10,5.74810219 C10,5.45670383 10.125,5.23815506 10.375,5.09245588 L12.125,4.07256164 C12.5625,3.85401287 13,4.14541123 13,4.72820794 Z" id="Path"></path>
                <path d="M18,0.772906002 L18,14.2267884 C18,14.6907153 17.6875,15 17.375,15 L15.5625,15 C15.25,15 15,14.6907153 15,14.2267884 L15,1.85540228 C15,1.54611763 15.125,1.31415414 15.3125,1.15951182 L17.125,0.077015535 C17.5,-0.154947954 18,0.154336698 18,0.772906002 Z" id="Path"></path>
            </g>
        </g>
    </g>
</svg>