
<svg width="50px" height="71px" viewBox="0 0 50 71" version="1.1" xmlns="http://www.w3.org/2000/svg" xmlns:xlink="http://www.w3.org/1999/xlink">
    <g id="Desktop-UI" stroke="none" stroke-width="1" fill="none" fill-rule="evenodd">
        <g id="Landing-Page---Active-Search" transform="translate(-846.000000, -991.000000)" fill-rule="nonzero">
            <g id="SmartContract" transform="translate(846.000000, 991.000000)">
                <path d="M40.8,70.7 L8.7,52.2 C8,51.8 7.5,51 7.5,50.1 L7.5,2.1 C7.5,1.4 8,0.9 8.7,0.9 C8.9,0.9 9.1,1 9.3,1.1 L34.3,15.6 L43,33.8 L43,69.5 C43,70.3 42.4,70.9 41.6,71 C41.3,70.9 41,70.9 40.8,70.7 Z" id="Path" fill="#FFFFFF"></path>
                <path d="M34.3,15.6 L34.1,27.6 C34.1,28.3 34.5,28.9 35,29.2 L42.9,33.8" id="Path" fill="#969696"></path>
                <path d="M27.2,27.2 L13.5,19.3 C13.1,19.1 12.9,18.7 12.9,18.3 L12.9,15.5 C12.9,15.2 13.2,14.9 13.5,14.9 C13.6,14.9 13.7,14.9 13.8,15 L27.5,22.9 C27.9,23.1 28.1,23.5 28.1,23.9 L28.1,26.7 C28.1,27 27.8,27.3 27.5,27.3 C27.4,27.3 27.3,27.3 27.2,27.2 Z" id="Path" fill="#02E49B"></path>
                <path d="M20.3,32.7 L14.7,29.4 C14.3,29.2 14.1,28.8 14.1,28.4 L14.1,25.6 C14.1,25.3 14.4,25 14.7,25 C14.8,25 14.9,25 15,25.1 L20.6,28.4 C21,28.6 21.2,29 21.2,29.4 L21.2,32.2 C21.2,32.5 20.9,32.8 20.6,32.8 C20.5,32.8 20.4,32.8 20.3,32.7 Z" id="Path" fill="#02E49B"></path>
                <path d="M9.5,17.5 L1.2,12.6 C0.8,12.4 0.6,12 0.6,11.6 L0.6,8.8 C0.6,8.5 0.9,8.2 1.2,8.2 C1.3,8.2 1.4,8.2 1.5,8.3 L9.8,13.2 C10.2,13.4 10.4,13.8 10.4,14.2 L10.4,17 C10.4,17.3 10.1,17.6 9.8,17.6 C9.7,17.6 9.6,17.6 9.5,17.5 Z" id="Path" fill="#02E49B"></path>
                <path d="M38,42.8 L24.3,34.9 C23.9,34.7 23.7,34.3 23.7,33.9 L23.7,31.1 C23.7,30.8 24,30.5 24.3,30.5 C24.4,30.5 24.5,30.5 24.6,30.6 L38.3,38.5 C38.7,38.7 38.9,39.1 38.9,39.5 L38.9,42.3 C38.9,42.6 38.7,42.9 38.3,42.9 C38.2,42.9 38.1,42.9 38,42.8 Z" id="Path" fill="#02E49B"></path>
                <path d="M49.1,58 L21,41.9 C20.7,41.7 20.6,41.4 20.6,41.1 L20.6,37.9 C20.6,37.7 20.8,37.5 21,37.5 C21.1,37.5 21.1,37.5 21.2,37.6 L49.4,53.7 C49.7,53.9 49.8,54.1 49.8,54.5 L49.8,57.7 C49.8,57.9 49.6,58.1 49.4,58.2 C49.3,58.1 49.2,58.1 49.1,58 Z" id="Path" fill="#02E49B"></path>
                <path d="M33.77887,60.27769 C35.3277912,59.5481716 35.9157399,57.539112 35.09209,55.79033 C34.2684401,54.041548 32.3450912,53.2152716 30.79617,53.94479 C29.2472488,54.6743084 28.6593001,56.683368 29.48295,58.43215 C30.3065999,60.180932 32.2299488,61.0072084 33.77887,60.27769 Z" id="Oval" fill="#969696"></path>
            </g>
        </g>
    </g>
</svg>