
<svg width="32px" height="32px" viewBox="0 0 32 32" version="1.1" xmlns="http://www.w3.org/2000/svg" xmlns:xlink="http://www.w3.org/1999/xlink">
    <g id="Desktop-UI" stroke="none" stroke-width="1" fill="none" fill-rule="evenodd">
        <g id="Landing-Page-V2" transform="translate(-1369.000000, -1829.000000)" fill="#F9FAFA">
            <path d="M1385,1829 C1393.83656,1829 1401,1836.16344 1401,1845 C1401,1853.83656 1393.83656,1861 1385,1861 C1376.16344,1861 1369,1853.83656 1369,1845 C1369,1836.16344 1376.16344,1829 1385,1829 Z M1391.556,1838.00136 C1391.31035,1838.01183 1391.08491,1838.08102 1390.88687,1838.15746 C1390.70391,1838.22803 1390.04689,1838.49847 1389.00069,1838.92821 C1387.95449,1839.35795 1386.56819,1839.92773 1385.09052,1840.53637 C1382.13518,1841.75364 1378.81414,1843.12291 1377.11245,1843.82423 C1377.05401,1843.84807 1376.81668,1843.91923 1376.55456,1844.11529 C1376.29184,1844.31181 1376,1844.73831 1376,1845.20474 C1376,1845.58101 1376.1918,1845.96422 1376.42339,1846.18362 C1376.65499,1846.40302 1376.88971,1846.5056 1377.08588,1846.582 L1377.08588,1846.58038 C1377.74899,1846.8391 1379.72925,1847.61511 1380.20073,1847.79991 C1380.36798,1848.29071 1381.08593,1850.3919 1381.25673,1850.92029 L1381.25507,1850.92029 C1381.37579,1851.29427 1381.49347,1851.538 1381.65688,1851.74144 C1381.73858,1851.84316 1381.83611,1851.93534 1381.95574,1852.00811 C1382.00164,1852.03604 1382.05247,1852.05769 1382.10352,1852.07803 L1382.1251,1852.08454 L1382.1251,1852.08454 L1382.10518,1852.07966 C1382.11998,1852.08549 1382.13326,1852.09408 1382.14835,1852.09917 C1382.17293,1852.10746 1382.18997,1852.10719 1382.22306,1852.11381 C1382.33953,1852.14889 1382.45579,1852.17234 1382.56344,1852.17234 C1383.02557,1852.17234 1383.30894,1851.92681 1383.30894,1851.92681 L1383.32721,1851.9138 L1385.32297,1850.26011 L1387.76704,1852.47479 C1387.81168,1852.53652 1388.1614,1853 1388.9708,1853 C1389.45377,1853 1389.83562,1852.76588 1390.07993,1852.52032 C1390.32424,1852.27475 1390.47642,1852.02349 1390.54483,1851.6829 L1390.54649,1851.68128 C1390.60006,1851.41139 1392.85642,1840.31526 1392.93845,1839.91186 L1392.94,1839.902 L1392.937,1839.911 L1392.96764,1839.76174 C1393.01277,1839.49901 1393.01575,1839.24166 1392.94407,1838.98024 C1392.85805,1838.66654 1392.62589,1838.3604 1392.34633,1838.19974 C1392.06678,1838.03909 1391.80165,1837.9909 1391.556,1838.00136 Z M1391.2206,1839.82416 C1391.12814,1840.27875 1389.03226,1850.59054 1388.90273,1851.23737 L1385.37278,1848.03894 L1382.98683,1850.01458 L1383.64766,1847.48446 C1383.64766,1847.48446 1388.20641,1842.96534 1388.48099,1842.70226 C1388.70202,1842.49163 1388.74831,1842.41779 1388.74831,1842.34453 C1388.74831,1842.24712 1388.69712,1842.17705 1388.57896,1842.17705 C1388.47269,1842.17705 1388.32837,1842.27677 1388.25186,1842.32339 C1387.27964,1842.91699 1383.13869,1845.22802 1381.10231,1846.36249 C1380.97976,1846.31436 1379.13987,1845.59082 1378.14852,1845.20312 C1379.91187,1844.47632 1382.93455,1843.23088 1385.74969,1842.07135 C1387.2271,1841.46282 1388.613,1840.89253 1389.6582,1840.4632 C1390.54048,1840.10079 1391.00071,1839.91314 1391.2206,1839.82416 Z" id="Combined-Shape"></path>
        </g>
    </g>
</svg>