
<svg width="20px" height="17px" viewBox="0 0 20 17" version="1.1" xmlns="http://www.w3.org/2000/svg" xmlns:xlink="http://www.w3.org/1999/xlink">
    <g id="Desktop-UI" stroke="none" stroke-width="1" fill="none" fill-rule="evenodd">
        <g id="Address" transform="translate(-143.000000, -542.000000)" fill="#FFFFFF" fill-rule="nonzero">
            <g id="Group-6" transform="translate(128.000000, 531.000000)">
                <g id="Shape-2" transform="translate(15.000000, 11.000000)">
                    <path d="M14.7355044,0.00243195375 C14.4990632,0.0282835038 14.3200965,0.230089588 14.320754,0.470111801 L14.320754,3.15745051 L8.28983161,3.15745051 C8.16583697,3.1578118 8.04712505,3.20815827 7.96009382,3.29729437 C7.87306259,3.38643046 7.82492708,3.50696666 7.82635874,3.63209931 L7.82635874,7.00351305 C7.82718238,7.26148782 8.03421963,7.47040901 8.28983161,7.47117056 L14.320754,7.47117056 L14.320754,10.1585316 C14.3214623,10.3466175 14.4334129,10.5160923 14.6051693,10.5890896 C14.7769258,10.6620869 14.9752773,10.6244918 15.1090897,10.4935778 L19.8674321,5.64237662 C20.0441893,5.46004202 20.0441893,5.16857905 19.8674321,4.98624444 L15.1090897,0.135065583 C15.0103856,0.0368476794 14.8733988,-0.0117866404 14.7355044,0.00243195375 L14.7355044,0.00243195375 Z M5.20208381,6.36959035 C5.08459598,6.37472189 4.97340232,6.424607 4.89091034,6.50919295 L0.132567873,11.3603941 C-0.0441892909,11.5427287 -0.0441892909,11.8341917 0.132567873,12.0165263 L4.89091034,16.8677052 C5.02472273,16.9986192 5.2230742,17.0362142 5.39483067,16.963217 C5.56658713,16.8902197 5.67853775,16.7207449 5.67924596,16.532659 L5.67924596,13.8453203 L11.7033075,13.8453203 C11.8272637,13.8448995 11.9459186,13.7945269 12.0329019,13.7053973 C12.1198852,13.6162677 12.1679905,13.4957655 12.1665591,13.3706715 L12.1665591,9.99925772 C12.1657361,9.74136978 11.9588331,9.53248429 11.7033075,9.5316002 L5.67924596,9.5316002 L5.67924596,6.84423916 C5.68078285,6.71667579 5.63077686,6.59398226 5.54075064,6.50443023 C5.45072442,6.4148782 5.32844326,6.36619207 5.20208381,6.36959035 L5.20208381,6.36959035 Z M4.75236511,7.98201145 L4.75236511,9.99925772 C4.7508774,10.1256356 4.79997953,10.2472728 4.88855074,10.3366207 C4.97712194,10.4259686 5.09766813,10.4754674 5.22288772,10.4739065 L11.246728,10.4739065 L11.246728,12.9029916 L5.22288772,12.9029916 C5.09887075,12.901454 4.97938815,12.9500017 4.89102166,13.0378343 C4.80265516,13.125667 4.75273429,13.2454992 4.75236511,13.3706715 L4.75236511,15.394909 L1.12141783,11.6884491 L4.75236511,7.98201145 L4.75236511,7.98201145 Z" id="Shape"></path>
                </g>
            </g>
        </g>
    </g>
</svg>