
<svg width="60px" height="70px" viewBox="0 0 60 70" version="1.1" xmlns="http://www.w3.org/2000/svg" xmlns:xlink="http://www.w3.org/1999/xlink">
    <g id="Desktop-UI" stroke="none" stroke-width="1" fill="none" fill-rule="evenodd">
        <g id="Landing-Page---Active-Search" transform="translate(-538.000000, -991.000000)" fill-rule="nonzero">
            <g id="NeoVM" transform="translate(538.000000, 991.000000)">
                <path d="M40.3,54.9 L18.9,42.6 C18.3,42.2 17.9,41.6 17.9,40.8 L17.9,15.8 C17.9,15.2 18.4,14.8 18.9,14.8 C19.1,14.8 19.3,14.8 19.4,14.9 L40.9,27.2 C41.5,27.6 41.9,28.3 41.9,29 L41.9,54 C41.9,54.6 41.4,55 40.9,55 C40.7,55.1 40.5,55 40.3,54.9 Z" id="Path" fill="#FFFFFF"></path>
                <path d="M31.7,39.1 L27.9,36.9 C27.6,36.7 27.4,36.4 27.4,36 L27.4,31.5 C27.4,31.2 27.6,31 27.9,31 C28,31 28.1,31 28.2,31.1 L32.1,33.3 C32.4,33.5 32.6,33.8 32.6,34.1 L32.6,38.6 C32.6,38.9 32.4,39.1 32.1,39.1 C31.9,39.2 31.8,39.1 31.7,39.1 Z" id="Path" fill="#969696"></path>
                <path d="M31.9,22.1 L27.7,19.7 L27.7,15.5 C27.7,15.3 27.9,15.1 28.2,15.1 C28.3,15.1 28.3,15.1 28.4,15.1 L31.6,16.9 C31.9,17 32,17.3 32,17.6 L31.9,22.1 Z" id="Path" fill="#FFFFFF"></path>
                <path d="M37.7,25.5 L33.5,23.1 L33.5,18.9 C33.5,18.7 33.7,18.5 33.9,18.5 C34,18.5 34,18.5 34.1,18.6 L37.3,20.4 C37.6,20.5 37.7,20.8 37.7,21.1 L37.7,25.5 Z" id="Path" fill="#FFFFFF"></path>
                <path d="M26.1,18.8 L21.9,16.4 L21.9,12.2 C21.9,12 22.1,11.8 22.3,11.8 C22.4,11.8 22.4,11.8 22.5,11.9 L25.7,13.7 C26,13.8 26.1,14.1 26.1,14.4 L26.1,18.8 Z" id="Path" fill="#FFFFFF"></path>
                <path d="M31.3,13.8 L28.1,12 C27.8,11.9 27.7,11.6 27.7,11.3 L27.7,7.6 C27.7,7.4 27.9,7.2 28.1,7.2 C28.2,7.2 28.2,7.2 28.3,7.3 L31.5,9.1 C31.8,9.2 31.9,9.5 31.9,9.8 L31.9,13.5 C31.9,13.7 31.7,13.9 31.5,13.9 C31.4,13.8 31.3,13.8 31.3,13.8 Z" id="Path" fill="#02E49B"></path>
                <path d="M17.8,23 L14,20.8 C13.7,20.6 13.6,20.4 13.6,20.1 L13.6,16.4 C13.6,16.2 13.8,16 14,16 C14.1,16 14.1,16 14.2,16.1 L17.8,18.2 L17.8,23 Z" id="Path" fill="#FFFFFF"></path>
                <path d="M17.8,30.3 L14,28.1 C13.7,27.9 13.6,27.7 13.6,27.4 L13.6,23.7 C13.6,23.5 13.8,23.3 14,23.3 C14.1,23.3 14.2,23.3 14.2,23.4 L17.8,25.5 L17.8,30.3 Z" id="Path" fill="#FFFFFF"></path>
                <path d="M17.8,37.3 L14,35.1 C13.7,34.9 13.6,34.7 13.6,34.4 L13.6,30.7 C13.6,30.5 13.8,30.3 14,30.3 C14.1,30.3 14.1,30.3 14.2,30.4 L17.8,32.5 L17.8,37.3 Z" id="Path" fill="#FFFFFF"></path>
                <path d="M37.1,17.3 L33.9,15.5 C33.6,15.4 33.5,15.1 33.5,14.8 L33.5,11.1 C33.5,10.9 33.7,10.7 33.9,10.7 C34,10.7 34,10.7 34.1,10.8 L37.3,12.6 C37.6,12.7 37.7,13 37.7,13.3 L37.7,17 C37.7,17.2 37.5,17.4 37.3,17.4 C37.2,17.3 37.2,17.3 37.1,17.3 Z" id="Path" fill="#02E49B"></path>
                <path d="M25.5,10.6 L22.4,8.8 C22.1,8.7 22,8.4 22,8.1 L22,4.4 C22,4.2 22.2,4 22.4,4 C22.5,4 22.5,4 22.6,4.1 L25.8,5.9 C26.1,6 26.2,6.3 26.2,6.6 L26.2,10.3 C26.2,10.5 26,10.7 25.8,10.7 C25.7,10.7 25.6,10.6 25.5,10.6 Z" id="Path" fill="#02E49B"></path>
                <path d="M31.4,6.6 L28.2,4.8 C27.9,4.6 27.8,4.4 27.8,4.1 L27.8,0.4 C27.8,0.2 28,0 28.2,0 C28.3,0 28.3,0 28.4,0.1 L31.6,1.9 C31.9,2.1 32,2.3 32,2.6 L32,6.3 C32,6.5 31.8,6.7 31.6,6.7 C31.5,6.7 31.4,6.7 31.4,6.6 Z" id="Path" fill="#D9DBDC"></path>
                <path d="M10.3,19.5 L7.1,17.7 C6.8,17.5 6.7,17.3 6.7,17 L6.7,13.3 C6.7,13.1 6.9,12.9 7.1,12.9 C7.2,12.9 7.3,12.9 7.3,13 L10.5,14.8 C10.8,15 10.9,15.2 10.9,15.5 L10.9,19.2 C10.9,19.4 10.7,19.6 10.5,19.6 C10.5,19.5 10.4,19.5 10.3,19.5 Z" id="Path" fill="#02E49B"></path>
                <path d="M4,22.4 L0.8,20.6 C0.5,20.4 0.4,20.2 0.4,19.9 L0.4,16.2 C0.4,16 0.6,15.8 0.8,15.8 C0.9,15.8 0.9,15.8 1,15.9 L4.2,17.7 C4.5,17.9 4.6,18.1 4.6,18.4 L4.6,22.1 C4.6,22.3 4.4,22.5 4.2,22.5 C4.1,22.5 4,22.5 4,22.4 Z" id="Path" fill="#D9DBDC"></path>
                <path d="M10.3,26.8 L7.2,25 C6.9,24.9 6.8,24.6 6.8,24.3 L6.8,20.7 C6.8,20.5 7,20.3 7.2,20.3 C7.3,20.3 7.3,20.3 7.4,20.4 L10.5,22.2 C10.8,22.3 10.9,22.6 10.9,22.9 L10.9,26.6 C10.9,26.8 10.7,27 10.5,27 C10.4,26.8 10.4,26.8 10.3,26.8 Z" id="Path" fill="#02E49B"></path>
                <path d="M10.3,34.4 L7.1,32.6 C6.8,32.5 6.7,32.2 6.7,31.9 L6.7,28.3 C6.7,28.1 6.9,27.9 7.1,27.9 C7.2,27.9 7.2,27.9 7.3,28 L10.4,29.8 C10.7,29.9 10.8,30.2 10.8,30.5 L10.8,34 C10.8,34.2 10.6,34.4 10.4,34.4 C10.4,34.5 10.4,34.4 10.3,34.4 Z" id="Path" fill="#02E49B"></path>
                <path d="M45.5,46.3 L41.9,44.2 L41.9,39.3 L45.7,41.5 C46,41.7 46.1,41.9 46.1,42.2 L46.1,45.9 C46.1,46.1 45.9,46.3 45.7,46.3 C45.6,46.4 45.5,46.4 45.5,46.3 Z" id="Path" fill="#FFFFFF"></path>
                <path d="M45.5,39 L41.9,37 L41.9,32.1 L45.7,34.3 C46,34.5 46.1,34.7 46.1,35.1 L46.1,38.8 C46.1,39 45.9,39.2 45.6,39.2 C45.6,39.1 45.5,39 45.5,39 Z" id="Path" fill="#FFFFFF"></path>
                <path d="M45.5,53.3 L41.9,51.2 L41.9,46.3 L45.7,48.5 C46,48.7 46.1,48.9 46.1,49.2 L46.1,53 C46.1,53.2 45.9,53.4 45.7,53.4 C45.6,53.4 45.5,53.4 45.5,53.3 Z" id="Path" fill="#FFFFFF"></path>
                <path d="M52.4,50.2 L49.2,48.4 C48.9,48.2 48.8,48 48.8,47.7 L48.8,44 C48.8,43.8 49,43.6 49.2,43.6 C49.3,43.6 49.3,43.6 49.4,43.7 L52.6,45.5 C52.9,45.7 53,45.9 53,46.2 L53,49.9 C53,50.1 52.8,50.3 52.5,50.3 C52.6,50.3 52.5,50.3 52.4,50.2 Z" id="Path" fill="#02E49B"></path>
                <path d="M31.4,54.6 L28.2,52.8 C27.9,52.6 27.8,52.4 27.8,52.1 L27.8,47.7 L32,50.1 L32,54.3 C32,54.5 31.8,54.7 31.6,54.7 C31.5,54.7 31.4,54.7 31.4,54.6 Z" id="Path" fill="#FFFFFF"></path>
                <path d="M25.1,51 L21.9,49.2 C21.6,49.1 21.5,48.8 21.5,48.5 L21.5,44.1 L25.7,46.5 L25.7,50.7 C25.7,50.9 25.5,51.1 25.3,51.1 C25.2,51.1 25.1,51.1 25.1,51 Z" id="Path" fill="#FFFFFF"></path>
                <path d="M37.7,58.3 L34.5,56.5 C34.2,56.3 34.1,56.1 34.1,55.8 L34.1,51.4 L38.3,53.8 L38.3,58 C38.3,58.2 38.1,58.4 37.9,58.4 C37.9,58.4 37.8,58.4 37.7,58.3 Z" id="Path" fill="#FFFFFF"></path>
                <path d="M31.4,62.3 L28.2,60.5 C27.9,60.3 27.8,60.1 27.8,59.8 L27.8,56.1 C27.8,55.9 28,55.7 28.2,55.7 C28.3,55.7 28.3,55.7 28.4,55.8 L31.6,57.6 C31.9,57.8 32,58 32,58.3 L32,62 C32,62.2 31.8,62.4 31.6,62.4 C31.5,62.4 31.4,62.4 31.4,62.3 Z" id="Path" fill="#02E49B"></path>
                <path d="M31.4,69.9 L28.2,68.1 C27.9,67.9 27.8,67.7 27.8,67.4 L27.8,63.7 C27.8,63.5 28,63.3 28.2,63.3 C28.3,63.3 28.3,63.3 28.4,63.4 L31.6,65.2 C31.9,65.4 32,65.6 32,65.9 L32,69.6 C32,69.8 31.8,70 31.6,70 C31.5,70 31.4,70 31.4,69.9 Z" id="Path" fill="#D9DBDC"></path>
                <path d="M25.1,58.8 L21.9,57 C21.6,56.8 21.5,56.5 21.5,56.2 L21.5,52.5 C21.5,52.3 21.7,52.1 21.9,52.1 C22,52.1 22,52.1 22.1,52.2 L25.3,54 C25.6,54.1 25.7,54.4 25.7,54.7 L25.7,58.4 C25.7,58.6 25.5,58.8 25.3,58.8 C25.2,58.9 25.1,58.9 25.1,58.8 Z" id="Path" fill="#02E49B"></path>
                <path d="M37.7,66 L34.5,64.2 C34.2,64 34.1,63.8 34.1,63.5 L34.1,59.8 C34.1,59.6 34.3,59.4 34.5,59.4 C34.6,59.4 34.6,59.4 34.7,59.5 L37.9,61.3 C38.2,61.5 38.3,61.7 38.3,62 L38.3,65.7 C38.3,65.9 38.1,66.1 37.9,66.1 C37.9,66 37.8,66 37.7,66 Z" id="Path" fill="#02E49B"></path>
                <path d="M52.4,42.2 L49.2,40.4 C48.9,40.2 48.8,40 48.8,39.7 L48.8,36 C48.8,35.8 49,35.6 49.2,35.6 C49.3,35.6 49.3,35.6 49.4,35.7 L52.6,37.5 C52.9,37.7 53,37.9 53,38.2 L53,41.9 C53,42.1 52.8,42.3 52.6,42.3 C52.6,42.3 52.5,42.3 52.4,42.2 Z" id="Path" fill="#02E49B"></path>
                <path d="M58.8,54.1 L55.6,52.3 C55.3,52.1 55.2,51.9 55.2,51.6 L55.2,47.9 C55.2,47.7 55.4,47.5 55.6,47.5 C55.7,47.5 55.7,47.5 55.8,47.6 L59,49.4 C59.3,49.6 59.4,49.8 59.4,50.1 L59.4,53.8 C59.4,54 59.2,54.2 59,54.2 C58.9,54.1 58.9,54.1 58.8,54.1 Z" id="Path" fill="#D9DBDC"></path>
                <path d="M52.4,56.7 L49.2,54.9 C48.9,54.7 48.8,54.5 48.8,54.2 L48.8,50.5 C48.8,50.3 49,50.1 49.2,50.1 C49.3,50.1 49.4,50.1 49.4,50.2 L52.6,52 C52.9,52.2 53,52.4 53,52.7 L53,56.4 C53,56.6 52.8,56.8 52.6,56.9 C52.6,56.8 52.5,56.8 52.4,56.7 Z" id="Path" fill="#02E49B"></path>
            </g>
        </g>
    </g>
</svg>