
<svg width="70px" height="70px" viewBox="0 0 70 70" version="1.1" xmlns="http://www.w3.org/2000/svg" xmlns:xlink="http://www.w3.org/1999/xlink">
    <defs>
        <linearGradient x1="91.3185088%" y1="66.9913572%" x2="5.00445474%" y2="31.1433397%" id="linearGradient-1">
            <stop stop-color="#D9DBDC" stop-opacity="0" offset="0%"></stop>
            <stop stop-color="#D9DBDC" offset="100%"></stop>
        </linearGradient>
        <linearGradient x1="65.8121515%" y1="42.8578213%" x2="152.368851%" y2="6.76492368%" id="linearGradient-2">
            <stop stop-color="#D9DBDC" stop-opacity="0" offset="0%"></stop>
            <stop stop-color="#D9DBDC" offset="100%"></stop>
        </linearGradient>
    </defs>
    <g id="Desktop-UI" stroke="none" stroke-width="1" fill="none" fill-rule="evenodd">
        <g id="Landing-Page---Active-Search" transform="translate(-232.000000, -991.000000)" fill-rule="nonzero">
            <g id="dBFT2.0" transform="translate(232.000000, 991.000000)">
                <rect id="Rectangle" fill="#969696" x="32.5" y="14.4" width="4.6" height="18.7"></rect>
                <path d="M34.3,0.2 L28.3,3.6 C28,3.8 27.8,4.1 27.8,4.4 L27.8,11.3 C27.8,11.6 28,11.9 28.3,12.1 L34.3,15.6 C34.6,15.8 34.9,15.8 35.2,15.6 L41.2,12.1 C41.5,11.9 41.7,11.6 41.7,11.3 L41.7,4.4 C41.7,4.1 41.5,3.8 41.2,3.6 L35.2,0.1 C34.9,0.1 34.6,0.1 34.3,0.2 Z" id="Path" fill="#FFFFFF"></path>
                <rect id="Rectangle" fill="#969696" transform="translate(20.856600, 47.619800) rotate(-30.000728) translate(-20.856600, -47.619800) " x="11.5068057" y="45.3198506" width="18.6995886" height="4.5998988"></rect>
                <rect id="Rectangle" fill="#969696" transform="translate(48.536400, 47.533800) rotate(-59.999272) translate(-48.536400, -47.533800) " x="46.2364506" y="38.1840057" width="4.5998988" height="18.6995886"></rect>
                <path d="M34.3,32 L28.3,35.5 C28,35.7 27.8,36 27.8,36.3 L27.8,43.2 C27.8,43.5 28,43.8 28.3,44 L34.3,47.5 C34.6,47.7 34.9,47.7 35.2,47.5 L41.2,44 C41.5,43.8 41.7,43.5 41.7,43.2 L41.7,36.3 C41.7,36 41.5,35.7 41.2,35.5 L35.2,32 C34.9,31.8 34.6,31.8 34.3,32 Z" id="Path" fill="#02E49B"></path>
                <polygon id="Path" fill="url(#linearGradient-1)" points="11.6 60.7 13.9 56.8 30.1 66.1 27.8 70.1"></polygon>
                <polygon id="Path" fill="url(#linearGradient-2)" points="41.6 70.1 39.3 66.1 55.5 56.8 57.8 60.7"></polygon>
                <path d="M61.8,47.8 L55.8,51.3 C55.5,51.5 55.3,51.8 55.3,52.1 L55.3,59 C55.3,59.3 55.5,59.6 55.8,59.8 L61.8,63.3 C62.1,63.5 62.4,63.5 62.7,63.3 L68.7,59.8 C69,59.6 69.2,59.3 69.2,59 L69.2,52.1 C69.2,51.8 69,51.5 68.7,51.3 L62.7,47.8 C62.5,47.6 62.1,47.6 61.8,47.8 Z" id="Path" fill="#FFFFFF"></path>
                <path d="M6.9,47.8 L0.9,51.3 C0.6,51.5 0.4,51.8 0.4,52.1 L0.4,59 C0.4,59.3 0.6,59.6 0.9,59.8 L6.9,63.3 C7.2,63.5 7.5,63.5 7.8,63.3 L13.8,59.8 C14.1,59.6 14.3,59.3 14.3,59 L14.3,52.1 C14.3,51.8 14.1,51.5 13.8,51.3 L7.8,47.8 C7.5,47.6 7.1,47.6 6.9,47.8 Z" id="Path" fill="#FFFFFF"></path>
            </g>
        </g>
    </g>
</svg>